<svg xmlns="http://www.w3.org/2000/svg" width="30" height="30" viewBox="0 0 30 30" fill="none">
  <path d="M5 27.5C4.3125 27.5 3.72417 27.2554 3.235 26.7663C2.745 26.2763 2.5 25.6875 2.5 25V5C2.5 4.3125 2.745 3.72375 3.235 3.23375C3.72417 2.74458 4.3125 2.5 5 2.5H25C25.6875 2.5 26.2763 2.74458 26.7663 3.23375C27.2554 3.72375 27.5 4.3125 27.5 5V25C27.5 25.6875 27.2554 26.2763 26.7663 26.7663C26.2763 27.2554 25.6875 27.5 25 27.5H5ZM5 25H25V5H5V25Z" fill="#309B5F"/>
  <path d="M17.9429 11.0699C17.6133 8.91113 15.75 7.25 13.5 7.25C11.0186 7.25 9 9.26855 9 11.75V21.5C9 21.9142 9.33545 22.25 9.75 22.25C10.1646 22.25 10.5 21.9142 10.5 21.5V11.75C10.5 10.0958 11.8455 8.75 13.5 8.75C14.9304 8.75 16.125 9.75745 16.4238 11.0985C14.7539 11.4768 13.5 12.9669 13.5 14.75C13.5 15.1642 13.8354 15.5 14.25 15.5H20.25C20.6646 15.5 21 15.1642 21 14.75C21 12.9197 19.6802 11.397 17.9429 11.0699ZM15.1282 14C15.438 13.127 16.2722 12.5 17.25 12.5C18.2278 12.5 19.062 13.127 19.3718 14H15.1282ZM18 17V17.75C18 18.1642 17.6646 18.5 17.25 18.5C16.8354 18.5 16.5 18.1642 16.5 17.75V17C16.5 16.5858 16.8354 16.25 17.25 16.25C17.6646 16.25 18 16.5858 18 17ZM15.75 17V17.75C15.75 18.1642 15.4146 18.5 15 18.5C14.5854 18.5 14.25 18.1642 14.25 17.75V17C14.25 16.5858 14.5854 16.25 15 16.25C15.4146 16.25 15.75 16.5858 15.75 17ZM20.25 17V17.75C20.25 18.1642 19.9146 18.5 19.5 18.5C19.0854 18.5 18.75 18.1642 18.75 17.75V17C18.75 16.5858 19.0854 16.25 19.5 16.25C19.9146 16.25 20.25 16.5858 20.25 17ZM18 20V20.75C18 21.1642 17.6646 21.5 17.25 21.5C16.8354 21.5 16.5 21.1642 16.5 20.75V20C16.5 19.5858 16.8354 19.25 17.25 19.25C17.6646 19.25 18 19.5858 18 20ZM15.75 20V20.75C15.75 21.1642 15.4146 21.5 15 21.5C14.5854 21.5 14.25 21.1642 14.25 20.75V20C14.25 19.5858 14.5854 19.25 15 19.25C15.4146 19.25 15.75 19.5858 15.75 20ZM20.25 20V20.75C20.25 21.1642 19.9146 21.5 19.5 21.5C19.0854 21.5 18.75 21.1642 18.75 20.75V20C18.75 19.5858 19.0854 19.25 19.5 19.25C19.9146 19.25 20.25 19.5858 20.25 20Z" fill="#309B5F"/>
</svg>