<svg xmlns="http://www.w3.org/2000/svg" width="30" height="30" viewBox="0 0 30 30" fill="none">
  <path d="M5 27.5C4.3125 27.5 3.72417 27.2554 3.235 26.7663C2.745 26.2763 2.5 25.6875 2.5 25V5C2.5 4.3125 2.745 3.72375 3.235 3.23375C3.72417 2.74458 4.3125 2.5 5 2.5H25C25.6875 2.5 26.2763 2.74458 26.7663 3.23375C27.2554 3.72375 27.5 4.3125 27.5 5V25C27.5 25.6875 27.2554 26.2763 26.7663 26.7663C26.2763 27.2554 25.6875 27.5 25 27.5H5ZM5 25H25V5H5V25Z" fill="#309B5F"/>
  <path d="M22.3214 14.6336V11.3571C22.3214 10.732 22.0731 10.1324 21.631 9.69039C21.189 9.24834 20.5894 9 19.9643 9H10.5357C9.91056 9 9.31101 9.24834 8.86896 9.69039C8.42691 10.1324 8.17857 10.732 8.17857 11.3571V14.6336C7.82232 14.8392 7.52609 15.1346 7.31933 15.4902C7.11257 15.8458 7.00248 16.2494 7 16.6607V20.1964C7 20.3527 7.06209 20.5026 7.1726 20.6131C7.28311 20.7236 7.433 20.7857 7.58929 20.7857C7.74557 20.7857 7.89546 20.7236 8.00597 20.6131C8.11649 20.5026 8.17857 20.3527 8.17857 20.1964V19.6071H22.3214V20.1964C22.3214 20.3527 22.3835 20.5026 22.494 20.6131C22.6045 20.7236 22.7544 20.7857 22.9107 20.7857C23.067 20.7857 23.2169 20.7236 23.3274 20.6131C23.4379 20.5026 23.5 20.3527 23.5 20.1964V16.6607C23.4975 16.2494 23.3874 15.8458 23.1807 15.4902C22.9739 15.1346 22.6777 14.8392 22.3214 14.6336ZM9.35714 11.3571C9.35714 11.0446 9.48131 10.7448 9.70234 10.5238C9.92336 10.3027 10.2231 10.1786 10.5357 10.1786H19.9643C20.2769 10.1786 20.5766 10.3027 20.7977 10.5238C21.0187 10.7448 21.1429 11.0446 21.1429 11.3571V14.3036H19.9643V13.7143C19.9643 13.2454 19.778 12.7958 19.4465 12.4642C19.115 12.1327 18.6653 11.9464 18.1964 11.9464H16.4286C15.9925 11.949 15.5727 12.1127 15.25 12.4061C14.9273 12.1127 14.5075 11.949 14.0714 11.9464H12.3036C11.8347 11.9464 11.385 12.1327 11.0535 12.4642C10.722 12.7958 10.5357 13.2454 10.5357 13.7143V14.3036H9.35714V11.3571ZM11.7143 14.3036V13.7143C11.7143 13.558 11.7764 13.4081 11.8869 13.2976C11.9974 13.1871 12.1473 13.125 12.3036 13.125H14.0714C14.2277 13.125 14.3776 13.1871 14.4881 13.2976C14.5986 13.4081 14.6607 13.558 14.6607 13.7143V14.3036H11.7143ZM15.8393 13.7143C15.8393 13.558 15.9014 13.4081 16.0119 13.2976C16.1224 13.1871 16.2723 13.125 16.4286 13.125H18.1964C18.3527 13.125 18.5026 13.1871 18.6131 13.2976C18.7236 13.4081 18.7857 13.558 18.7857 13.7143V14.3036H15.8393V13.7143ZM8.17857 16.6607C8.17857 16.3481 8.30274 16.0484 8.52377 15.8273C8.74479 15.6063 9.04457 15.4821 9.35714 15.4821H21.1429C21.4554 15.4821 21.7552 15.6063 21.9762 15.8273C22.1973 16.0484 22.3214 16.3481 22.3214 16.6607V18.4286H8.17857V16.6607Z" fill="#309B5F"/>
</svg>