<svg xmlns="http://www.w3.org/2000/svg" width="32" height="30" viewBox="0 0 32 30" fill="none">
  <path fill-rule="evenodd" clip-rule="evenodd" d="M21.5625 28.125H4.6875C3.13406 28.125 1.875 26.8659 1.875 25.3125C1.875 19.2769 1.875 5.625 1.875 5.625C1.875 5.1075 2.29406 4.6875 2.8125 4.6875H5.625V2.8125V2.80687C5.62781 2.29219 6.04688 1.875 6.5625 1.875C7.07719 1.875 7.49625 2.29219 7.5 2.80687V2.8125V4.6875H18.75V2.8125V2.80687C18.7528 2.29219 19.1719 1.875 19.6875 1.875C20.2022 1.875 20.6212 2.29219 20.625 2.80687V2.8125V4.6875H23.4375C23.955 4.6875 24.375 5.1075 24.375 5.625V15.9375C24.375 16.455 23.9541 16.875 23.4375 16.875C22.92 16.875 22.5 16.455 22.5 15.9375V13.125H3.75V25.3125C3.76219 25.8328 4.16719 26.2369 4.6875 26.25H21.5625C21.8109 26.25 22.0491 26.1516 22.2253 25.9753C22.4006 25.8 22.5 25.5609 22.5 25.3125C22.5 24.375 22.5 23.4375 22.5 23.4375C22.5 22.92 22.92 22.5 23.4375 22.5C23.9541 22.5 24.375 22.92 24.375 23.4375V25.3125C24.375 26.0588 24.0778 26.7741 23.5509 27.3009C23.0231 27.8288 22.3078 28.125 21.5625 28.125ZM27.375 20.625L25.875 21.75C25.4616 22.0603 25.3772 22.6481 25.6875 23.0625C25.9987 23.4769 26.5866 23.5603 27 23.25L30.75 20.4375C30.9778 20.2659 31.125 19.9941 31.125 19.6875C31.125 19.3753 30.9722 19.0988 30.7369 18.9281L30.7359 18.9263L27 16.125C26.5866 15.8147 25.9987 15.8981 25.6875 16.3125C25.3772 16.7269 25.4616 17.3147 25.875 17.625L27.375 18.75H17.0625C16.5459 18.75 16.125 19.17 16.125 19.6875C16.125 20.205 16.5459 20.625 17.0625 20.625H27.375ZM18.75 6.5625H7.5V8.4375L7.49906 8.44969C7.49343 8.96156 7.07531 9.375 6.5625 9.375C6.04688 9.375 5.62781 8.95781 5.625 8.44312V8.4375V6.5625H3.75V11.25H22.5V6.5625H20.625V8.4375C20.625 8.955 20.2041 9.375 19.6875 9.375C19.1719 9.375 18.7528 8.95781 18.75 8.44312V8.4375V6.5625Z" fill="#309B5F"/>
</svg>