<svg xmlns="http://www.w3.org/2000/svg" width="25" height="24" viewBox="0 0 25 24" fill="none">
  <path fill-rule="evenodd" clip-rule="evenodd" d="M2.5 6C2.5 5.44772 2.94772 5 3.5 5H21.5C22.0523 5 22.5 5.44772 22.5 6C22.5 6.55228 22.0523 7 21.5 7H3.5C2.94772 7 2.5 6.55228 2.5 6Z" fill="#D70000"/>
  <path fill-rule="evenodd" clip-rule="evenodd" d="M5.5 5C6.05228 5 6.5 5.44772 6.5 6V20C6.5 20.1748 6.59745 20.4332 6.83211 20.6679C7.06676 20.9025 7.32523 21 7.5 21H17.5C17.6748 21 17.9332 20.9025 18.1679 20.6679C18.4025 20.4332 18.5 20.1748 18.5 20V6C18.5 5.44772 18.9477 5 19.5 5C20.0523 5 20.5 5.44772 20.5 6V20C20.5 20.8252 20.0975 21.5668 19.5821 22.0821C19.0668 22.5975 18.3252 23 17.5 23H7.5C6.67477 23 5.93324 22.5975 5.41789 22.0821C4.90255 21.5668 4.5 20.8252 4.5 20V6C4.5 5.44772 4.94772 5 5.5 5Z" fill="#D70000"/>
  <path fill-rule="evenodd" clip-rule="evenodd" d="M9.83211 3.33211C9.59745 3.56676 9.5 3.82523 9.5 4V6C9.5 6.55228 9.05228 7 8.5 7C7.94772 7 7.5 6.55228 7.5 6V4C7.5 3.17477 7.90255 2.43324 8.41789 1.91789C8.93324 1.40255 9.67477 1 10.5 1H14.5C15.3252 1 16.0668 1.40255 16.5821 1.91789C17.0975 2.43324 17.5 3.17477 17.5 4V6C17.5 6.55228 17.0523 7 16.5 7C15.9477 7 15.5 6.55228 15.5 6V4C15.5 3.82523 15.4025 3.56676 15.1679 3.33211C14.9332 3.09745 14.6748 3 14.5 3H10.5C10.3252 3 10.0668 3.09745 9.83211 3.33211Z" fill="#D70000"/>
  <path fill-rule="evenodd" clip-rule="evenodd" d="M10.5 10C11.0523 10 11.5 10.4477 11.5 11V17C11.5 17.5523 11.0523 18 10.5 18C9.94772 18 9.5 17.5523 9.5 17V11C9.5 10.4477 9.94772 10 10.5 10Z" fill="#D70000"/>
  <path fill-rule="evenodd" clip-rule="evenodd" d="M14.5 10C15.0523 10 15.5 10.4477 15.5 11V17C15.5 17.5523 15.0523 18 14.5 18C13.9477 18 13.5 17.5523 13.5 17V11C13.5 10.4477 13.9477 10 14.5 10Z" fill="#D70000"/>
</svg>