<svg xmlns="http://www.w3.org/2000/svg" width="24" height="25" viewBox="0 0 24 25" fill="none">
  <g clip-path="url(#clip0_2961_3994)">
    <path fill-rule="evenodd" clip-rule="evenodd" d="M11.9617 1.22571C14.1251 1.2504 16.0796 1.7821 17.825 2.82083C19.5497 3.83882 20.9843 5.28225 21.9918 7.01308C23.0242 8.76906 23.5527 10.7354 23.5773 12.912C23.516 15.8901 22.5767 18.4337 20.7593 20.5428C18.942 22.6519 16.6144 23.9567 14.2049 24.4569V16.1072H16.4829L16.9981 12.8259H13.5487V10.6768C13.5295 10.2313 13.6704 9.79357 13.9459 9.44289C14.2218 9.09124 14.7075 8.90641 15.4032 8.88842H17.4862V6.01412C17.4563 6.0045 17.1727 5.96648 16.6354 5.90004C16.0261 5.82874 15.4133 5.79066 14.7998 5.78597C13.4113 5.79237 12.3131 6.18405 11.5054 6.961C10.6976 7.73773 10.2849 8.86149 10.2675 10.3323V12.8259H7.64245V16.1072H10.2675V24.4569C7.30894 23.9567 4.98136 22.6519 3.16402 20.5428C1.34667 18.4337 0.407391 15.8901 0.346069 12.912C0.370604 10.7353 0.899098 8.76896 1.93155 7.01308C2.93902 5.28225 4.37369 3.83882 6.09835 2.82083C7.84377 1.7823 9.79821 1.2506 11.9617 1.22571Z" fill="white"/>
  </g>
  <defs>
    <clipPath id="clip0_2961_3994">
      <rect width="24" height="24" fill="white" transform="translate(0 0.862061)"/>
    </clipPath>
  </defs>
</svg>