<svg xmlns="http://www.w3.org/2000/svg" width="24" height="25" viewBox="0 0 24 25" fill="none">
  <g clip-path="url(#clip0_2961_3996)">
    <path d="M14.2969 12.8621C14.2969 14.1306 13.2686 15.1589 12 15.1589C10.7314 15.1589 9.70312 14.1306 9.70312 12.8621C9.70312 11.5935 10.7314 10.5652 12 10.5652C13.2686 10.5652 14.2969 11.5935 14.2969 12.8621Z" fill="white"/>
    <path d="M17.3716 8.79816C17.2612 8.49896 17.085 8.22815 16.8561 8.00586C16.6339 7.77698 16.3632 7.60083 16.0638 7.49042C15.821 7.39612 15.4563 7.28387 14.7845 7.2533C14.0577 7.22015 13.8398 7.21301 12 7.21301C10.16 7.21301 9.94208 7.21997 9.21552 7.25311C8.5437 7.28387 8.17877 7.39612 7.93616 7.49042C7.63678 7.60083 7.36597 7.77698 7.14386 8.00586C6.91498 8.22815 6.73883 8.49878 6.62823 8.79816C6.53394 9.04095 6.42169 9.40588 6.39111 10.0777C6.35797 10.8043 6.35083 11.0222 6.35083 12.8622C6.35083 14.702 6.35797 14.9199 6.39111 15.6467C6.42169 16.3185 6.53394 16.6832 6.62823 16.926C6.73883 17.2254 6.91479 17.496 7.14368 17.7183C7.36597 17.9472 7.6366 18.1234 7.93597 18.2338C8.17877 18.3282 8.5437 18.4405 9.21552 18.4711C9.94208 18.5042 10.1598 18.5112 11.9998 18.5112C13.84 18.5112 14.0579 18.5042 14.7843 18.4711C15.4561 18.4405 15.821 18.3282 16.0638 18.2338C16.6648 18.002 17.1398 17.527 17.3716 16.926C17.4659 16.6832 17.5781 16.3185 17.6089 15.6467C17.642 14.9199 17.649 14.702 17.649 12.8622C17.649 11.0222 17.642 10.8043 17.6089 10.0777C17.5783 9.40588 17.4661 9.04095 17.3716 8.79816ZM12 16.4003C10.0457 16.4003 8.46149 14.8163 8.46149 12.862C8.46149 10.9077 10.0457 9.32367 12 9.32367C13.9541 9.32367 15.5383 10.9077 15.5383 12.862C15.5383 14.8163 13.9541 16.4003 12 16.4003ZM15.6782 10.0107C15.2216 10.0107 14.8513 9.64044 14.8513 9.18378C14.8513 8.72711 15.2216 8.35687 15.6782 8.35687C16.1349 8.35687 16.5051 8.72711 16.5051 9.18378C16.5049 9.64044 16.1349 10.0107 15.6782 10.0107Z" fill="white"/>
    <path d="M12 0.862061C5.3736 0.862061 0 6.23566 0 12.8621C0 19.4885 5.3736 24.8621 12 24.8621C18.6264 24.8621 24 19.4885 24 12.8621C24 6.23566 18.6264 0.862061 12 0.862061ZM18.8491 15.7029C18.8157 16.4365 18.6991 16.9373 18.5288 17.3756C18.1708 18.3012 17.4391 19.0329 16.5135 19.3909C16.0754 19.5612 15.5744 19.6776 14.8411 19.7111C14.1063 19.7446 13.8715 19.7527 12.0002 19.7527C10.1287 19.7527 9.8941 19.7446 9.15912 19.7111C8.42578 19.6776 7.9248 19.5612 7.48663 19.3909C7.02667 19.2178 6.61029 18.9467 6.26605 18.596C5.91559 18.252 5.64441 17.8354 5.47137 17.3756C5.30109 16.9374 5.18445 16.4365 5.15112 15.7031C5.11725 14.9681 5.10938 14.7334 5.10938 12.8621C5.10938 10.9907 5.11725 10.756 5.15094 10.0212C5.18427 9.28766 5.30072 8.78687 5.47101 8.34851C5.64404 7.88873 5.91541 7.47217 6.26605 7.12811C6.61011 6.77747 7.02667 6.50629 7.48645 6.33325C7.9248 6.16296 8.4256 6.04651 9.15912 6.013C9.89392 5.97949 10.1287 5.97144 12 5.97144C13.8713 5.97144 14.1061 5.97949 14.8409 6.01318C15.5744 6.04651 16.0752 6.16296 16.5135 6.33307C16.9733 6.5061 17.3899 6.77747 17.7341 7.12811C18.0846 7.47235 18.356 7.88873 18.5288 8.34851C18.6993 8.78687 18.8157 9.28766 18.8492 10.0212C18.8828 10.756 18.8906 10.9907 18.8906 12.8621C18.8906 14.7334 18.8828 14.9681 18.8491 15.7029Z" fill="white"/>
  </g>
  <defs>
    <clipPath id="clip0_2961_3996">
      <rect width="24" height="24" fill="white" transform="translate(0 0.862061)"/>
    </clipPath>
  </defs>
</svg>