<svg xmlns="http://www.w3.org/2000/svg" width="32" height="32" viewBox="0 0 32 32" fill="none">
  <path d="M28 15.56V10C28 8.93913 27.5786 7.92172 26.8284 7.17157C26.0783 6.42143 25.0609 6 24 6H8C6.93913 6 5.92172 6.42143 5.17157 7.17157C4.42143 7.92172 4 8.93913 4 10V15.56C3.39545 15.909 2.89276 16.4102 2.5419 17.0137C2.19104 17.6171 2.00421 18.3019 2 19V25C2 25.2652 2.10536 25.5196 2.29289 25.7071C2.48043 25.8946 2.73478 26 3 26C3.26522 26 3.51957 25.8946 3.70711 25.7071C3.89464 25.5196 4 25.2652 4 25V24H28V25C28 25.2652 28.1054 25.5196 28.2929 25.7071C28.4804 25.8946 28.7348 26 29 26C29.2652 26 29.5196 25.8946 29.7071 25.7071C29.8946 25.5196 30 25.2652 30 25V19C29.9958 18.3019 29.809 17.6171 29.4581 17.0137C29.1072 16.4102 28.6046 15.909 28 15.56ZM6 10C6 9.46957 6.21071 8.96086 6.58579 8.58579C6.96086 8.21071 7.46957 8 8 8H24C24.5304 8 25.0391 8.21071 25.4142 8.58579C25.7893 8.96086 26 9.46957 26 10V15H24V14C24 13.2044 23.6839 12.4413 23.1213 11.8787C22.5587 11.3161 21.7956 11 21 11H18C17.2599 11.0044 16.5476 11.2822 16 11.78C15.4524 11.2822 14.7401 11.0044 14 11H11C10.2044 11 9.44129 11.3161 8.87868 11.8787C8.31607 12.4413 8 13.2044 8 14V15H6V10ZM10 15V14C10 13.7348 10.1054 13.4804 10.2929 13.2929C10.4804 13.1054 10.7348 13 11 13H14C14.2652 13 14.5196 13.1054 14.7071 13.2929C14.8946 13.4804 15 13.7348 15 14V15H10ZM17 14C17 13.7348 17.1054 13.4804 17.2929 13.2929C17.4804 13.1054 17.7348 13 18 13H21C21.2652 13 21.5196 13.1054 21.7071 13.2929C21.8946 13.4804 22 13.7348 22 14V15H17V14ZM4 19C4 18.4696 4.21071 17.9609 4.58579 17.5858C4.96086 17.2107 5.46957 17 6 17H26C26.5304 17 27.0391 17.2107 27.4142 17.5858C27.7893 17.9609 28 18.4696 28 19V22H4V19Z" fill="#309B5F"/>
</svg>