<svg xmlns="http://www.w3.org/2000/svg" width="27" height="30" viewBox="0 0 27 30" fill="none">
  <path d="M18.4757 7.8692C16.2114 4.89899 11.977 4.33541 9.01692 6.59349C6.64884 8.39985 5.73002 11.5412 6.77411 14.331L13.006 26.0367L18.5727 15.9243C18.6762 15.7917 18.7717 15.644 18.8521 15.5043C20.3036 13.1426 20.1932 10.1058 18.4757 7.8692ZM14.0329 14.2082C13.8589 14.2817 13.6771 14.3402 13.4941 14.3605C13.2659 14.4048 13.0288 14.396 12.7835 14.3723C11.4488 14.1951 10.5222 12.9678 10.7011 11.634C10.8802 10.3 12.1094 9.3727 13.4442 9.55002C14.7788 9.72729 15.7055 10.9544 15.5266 12.2883C15.423 13.0015 15.0409 13.5924 14.4852 13.9667C14.3424 14.0622 14.1917 14.1427 14.0329 14.2082Z" stroke="#5EBE76" stroke-width="1.5" stroke-linejoin="round"/>
</svg>