<svg xmlns="http://www.w3.org/2000/svg" width="13" height="18" viewBox="0 0 13 18" fill="none">
  <path d="M6.43078 0.81543C4.72585 0.817441 3.09132 1.49561 1.88576 2.70118C0.680189 3.90675 0.00201819 5.54127 6.84169e-06 7.2462C-0.00203516 8.63947 0.453072 9.99493 1.29551 11.1047C1.29551 11.1047 1.4709 11.3356 1.49955 11.3689L6.43078 17.1847L11.3643 11.366C11.3901 11.335 11.566 11.1047 11.566 11.1047L11.5666 11.1029C12.4086 9.99366 12.8635 8.63883 12.8615 7.2462C12.8595 5.54127 12.1814 3.90675 10.9758 2.70118C9.77023 1.49561 8.1357 0.817441 6.43078 0.81543ZM6.43078 9.58466C5.96827 9.58466 5.51615 9.44751 5.1316 9.19056C4.74704 8.9336 4.44731 8.56839 4.27032 8.14109C4.09333 7.71379 4.04702 7.2436 4.13725 6.78999C4.22748 6.33637 4.45019 5.9197 4.77723 5.59266C5.10427 5.26562 5.52095 5.0429 5.97457 4.95267C6.42818 4.86244 6.89837 4.90875 7.32567 5.08574C7.75296 5.26273 8.11818 5.56246 8.37514 5.94702C8.63209 6.33158 8.76924 6.78369 8.76924 7.2462C8.76846 7.86616 8.52184 8.46051 8.08346 8.89889C7.64508 9.33727 7.05074 9.58389 6.43078 9.58466Z" fill="#5EBE76"/>
</svg>