<svg width="158" height="36" viewBox="0 0 158 36" fill="none" xmlns="http://www.w3.org/2000/svg">
<path d="M24.0093 36H0L12.1977 20.7988C12.5196 20.8312 12.8413 20.8312 13.1311 20.7988L19.0208 27.2265L24.8137 33.5577C25.876 34.3611 25.2965 36 24.0093 36Z" fill="#309B5F"/>
<path d="M25.2001 10.6756C24.0737 3.73362 17.5402 -0.958493 10.6206 0.166573C5.08495 1.06642 0.772371 5.46918 0.0320591 11.0291L0 36L18.2161 24.1412C18.5057 24.0127 18.7953 23.8521 19.0529 23.6913C23.5586 21.0561 26.0689 15.9141 25.2001 10.6756ZM12.1977 17.2639C11.8437 17.2315 11.4897 17.1674 11.1678 17.0389C10.7494 16.9101 10.3633 16.6852 9.977 16.4281C7.91716 14.9499 7.46672 12.0895 8.94708 10.0328C10.4277 7.97582 13.292 7.52589 15.3518 9.00443C17.4114 10.4827 17.8621 13.3428 16.3817 15.3998C15.577 16.4925 14.4184 17.1351 13.1632 17.2639C12.8413 17.2959 12.5196 17.2959 12.1977 17.2639Z" fill="#5EBE76"/>
<path d="M43.0954 12.6586H41.8723C40.424 12.6586 39.362 13.1408 38.7505 14.1048C38.1069 15.069 37.817 16.2903 37.817 17.7044V25.4495H35.3711V10.2161H37.4953L37.817 12.5301C38.2677 11.8231 38.8148 11.2767 39.5228 10.8589C40.2308 10.4413 41.1964 10.2161 42.4194 10.2161H43.0954V12.6586Z" fill="#013C3C"/>
<path d="M47.4075 11.0514C48.5018 10.4088 49.7569 10.0874 51.1729 10.0874C52.5568 10.0874 53.8119 10.3765 54.8742 10.9552C55.9361 11.5336 56.8052 12.3691 57.4168 13.4618C58.0281 14.5546 58.35 15.8399 58.4144 17.3185C58.4144 17.5434 58.382 17.8969 58.35 18.3789H46.5063V18.5718C46.5384 20.0501 46.9891 21.2713 47.8902 22.1391C48.759 23.0389 49.9177 23.4889 51.334 23.4889C52.428 23.4889 53.3615 23.1995 54.1339 22.6531C54.9062 22.1068 55.4213 21.3357 55.6786 20.3715H58.1568C57.8672 21.9141 57.1269 23.1995 55.9041 24.1637C54.7131 25.16 53.2327 25.642 51.4948 25.642C49.9821 25.642 48.6626 25.3206 47.5039 24.6778C46.3775 24.0352 45.4764 23.1031 44.8648 21.9462C44.2533 20.7893 43.9316 19.4072 43.9316 17.8648C43.9316 16.3222 44.2212 14.9401 44.8328 13.7832C45.4443 12.594 46.3131 11.6942 47.4075 11.0514ZM54.4235 13.3012C53.5867 12.594 52.4924 12.2406 51.2052 12.2406C50.0465 12.2406 49.0489 12.6264 48.1478 13.3654C47.2787 14.1367 46.7638 15.1009 46.6671 16.3222H55.8718C55.743 15.0365 55.2602 14.0082 54.4235 13.3012Z" fill="#013C3C"/>
<path d="M84.0019 16.7081V25.4816H81.556V16.8687C81.556 15.3904 81.2341 14.2656 80.6228 13.4943C79.979 12.723 79.1102 12.3374 77.9515 12.3374C76.664 12.3374 75.6664 12.7873 74.9584 13.6872C74.2504 14.587 73.8641 15.8083 73.8641 17.3509V25.5139H71.4182V16.901C71.4182 15.4225 71.0963 14.2977 70.4527 13.5263C69.8088 12.755 68.9077 12.3695 67.7169 12.3695C66.4941 12.3695 65.4962 12.8515 64.7882 13.7836C64.0479 14.7155 63.6939 15.9689 63.6939 17.5115V25.546H61.248V10.3128H63.372L63.6939 12.4016C64.7882 10.8912 66.2686 10.1199 68.1353 10.1199C69.2296 10.1199 70.1951 10.3769 71.0642 10.8589C71.901 11.3411 72.5446 12.0801 72.963 13.0123C74.0573 11.0841 75.8272 10.1199 78.2411 10.1199C79.9469 10.1199 81.3308 10.6662 82.4251 11.7267C83.455 12.755 84.0019 14.4262 84.0019 16.7081Z" fill="#013C3C"/>
<path d="M87.5417 21.9142C86.8979 20.7253 86.5762 19.3753 86.5762 17.8649C86.5762 16.3223 86.8979 14.9725 87.5417 13.8156C88.1853 12.6264 89.0865 11.7266 90.2128 11.0838C91.3715 10.441 92.6587 10.0875 94.1394 10.0875C95.6197 10.0875 96.9392 10.4089 98.0659 11.0838C99.1922 11.7587 100.093 12.6585 100.737 13.8156C101.381 15.0046 101.703 16.3543 101.703 17.8649C101.703 19.4076 101.381 20.7573 100.737 21.9142C100.093 23.1034 99.1922 24.0033 98.0659 24.6461C96.9072 25.2886 95.6197 25.6424 94.1394 25.6424C92.6587 25.6424 91.3392 25.321 90.2128 24.6461C89.0865 24.0033 88.1853 23.1034 87.5417 21.9142ZM98.5807 20.7574C98.9991 19.8896 99.2243 18.9253 99.2243 17.8649C99.2243 16.8042 98.9991 15.8403 98.5807 14.9725C98.1623 14.1047 97.5831 13.4619 96.8105 12.9799C96.0381 12.4979 95.1693 12.273 94.1714 12.273C93.1738 12.273 92.3047 12.4979 91.5323 12.9799C90.76 13.4619 90.1808 14.137 89.7624 14.9725C89.344 15.8403 89.1185 16.8042 89.1185 17.8649C89.1185 18.9253 89.344 19.8896 89.7624 20.7574C90.1808 21.6251 90.76 22.2677 91.5323 22.7499C92.3047 23.2319 93.1738 23.4569 94.1714 23.4569C95.1693 23.4569 96.0381 23.2319 96.8105 22.7499C97.5508 22.3 98.1623 21.6251 98.5807 20.7574ZM91.5647 8.48069H89.2473L93.013 4.4314H95.3301L99.0955 8.48069H96.7461L94.1714 6.03819L91.5647 8.48069Z" fill="#013C3C"/>
<path d="M102.604 12.498V10.2484H105.339V5.97412H107.785V10.2484H111.647V12.498H107.785V21.4967C107.785 22.1392 107.914 22.5892 108.171 22.8465C108.429 23.1035 108.847 23.264 109.459 23.264H112.13V25.5139H109.33C107.882 25.5139 106.884 25.1925 106.272 24.5497C105.661 23.9069 105.371 22.9106 105.371 21.5287V12.53H102.604V12.498Z" fill="#013C3C"/>
<path d="M116.313 4.59188V18.4433L124.069 10.2803H126.998L121.141 16.483L127.416 25.4814H124.456L119.371 18.2504L116.313 21.4321V25.4494H113.867V4.55981H116.313V4.59188Z" fill="#013C3C"/>
<path d="M131.376 11.0514C132.471 10.4088 133.726 10.0874 135.142 10.0874C136.526 10.0874 137.781 10.3765 138.843 10.9552C139.905 11.5336 140.774 12.3691 141.386 13.4618C141.997 14.5546 142.319 15.8399 142.383 17.3185C142.383 17.5434 142.351 17.8969 142.319 18.3789H130.475V18.5718C130.507 20.0501 130.958 21.2713 131.859 22.1391C132.728 23.0389 133.887 23.4889 135.303 23.4889C136.397 23.4889 137.331 23.1995 138.103 22.6531C138.875 22.1068 139.39 21.3357 139.648 20.3715H142.126C141.836 21.9141 141.096 23.1995 139.873 24.1637C138.682 25.16 137.202 25.642 135.464 25.642C133.951 25.642 132.632 25.3206 131.473 24.6778C130.347 24.0352 129.445 23.1031 128.834 21.9462C128.222 20.7893 127.9 19.4072 127.9 17.8648C127.9 16.3222 128.19 14.9401 128.802 13.7832C129.445 12.594 130.282 11.6942 131.376 11.0514ZM138.392 13.3012C137.556 12.594 136.461 12.2406 135.174 12.2406C134.016 12.2406 133.018 12.6264 132.117 13.3654C131.248 14.1367 130.733 15.1009 130.636 16.3222H139.841C139.744 15.0365 139.262 14.0082 138.392 13.3012Z" fill="#013C3C"/>
<path d="M150.365 22.6855L154.903 10.2804H157.51L150.494 28.0525C150.14 28.9526 149.818 29.6596 149.529 30.1095C149.239 30.5594 148.885 30.9129 148.466 31.1378C148.048 31.3628 147.501 31.4593 146.793 31.4593H143.864V29.2096H146.053C146.535 29.2096 146.889 29.1453 147.115 29.0488C147.34 28.9526 147.533 28.7918 147.694 28.5668C147.855 28.3419 148.016 27.9563 148.241 27.41L149.013 25.5779L143.027 10.2483H145.634L150.365 22.6855Z" fill="#013C3C"/>
</svg>