<svg xmlns="http://www.w3.org/2000/svg" width="132" height="31" viewBox="0 0 132 31" fill="none">
  <path d="M20.0077 30.8622H0L10.1647 18.1946C10.433 18.2215 10.7011 18.2215 10.9426 18.1946L15.8507 23.551L20.6781 28.827C21.5633 29.4965 21.0804 30.8622 20.0077 30.8622Z" fill="#309B5F"/>
  <path d="M21 9.7584C20.0614 3.97341 14.6168 0.0633167 8.8505 1.00087C4.23745 1.75074 0.643642 5.41971 0.0267159 10.053L0 30.8621L15.1801 20.9797C15.4214 20.8726 15.6628 20.7388 15.8774 20.6048C19.6322 18.4088 21.7241 14.1238 21 9.7584ZM10.1647 15.2486C9.86973 15.2217 9.57474 15.1682 9.30647 15.0611C8.95782 14.9538 8.6361 14.7664 8.31417 14.5522C6.59763 13.3203 6.22227 10.9366 7.4559 9.22272C8.68975 7.50857 11.0767 7.13364 12.7932 8.36575C14.5095 9.59765 14.8851 11.9811 13.6514 13.6952C12.9809 14.6058 12.0153 15.1413 10.9693 15.2486C10.7011 15.2753 10.433 15.2753 10.1647 15.2486Z" fill="#5EBE76"/>
  <path d="M36.1503 11.4566H35.131C33.9241 11.4566 33.0391 11.8585 32.5295 12.6618C31.9932 13.4653 31.7516 14.483 31.7516 15.6615V22.1158H29.7134V9.4212H31.4836L31.7516 11.3495C32.1272 10.7604 32.5832 10.3051 33.1732 9.95689C33.7632 9.60889 34.5678 9.4212 35.587 9.4212H36.1503V11.4566Z" fill="white"/>
  <path d="M39.7442 10.1175C40.6561 9.58205 41.7021 9.31421 42.8821 9.31421C44.0353 9.31421 45.0813 9.55511 45.9665 10.0374C46.8515 10.5194 47.5757 11.2156 48.0853 12.1262C48.5947 13.0368 48.863 14.108 48.9167 15.3401C48.9167 15.5276 48.8897 15.8221 48.863 16.2238H38.9933V16.3845C39.02 17.6164 39.3956 18.6341 40.1465 19.3573C40.8705 20.1072 41.8361 20.4821 43.0163 20.4821C43.928 20.4821 44.7059 20.241 45.3496 19.7857C45.9932 19.3304 46.4225 18.6878 46.6369 17.8843H48.702C48.4607 19.1698 47.8438 20.241 46.8248 21.0445C45.8322 21.8747 44.5986 22.2764 43.1504 22.2764C41.8898 22.2764 40.7902 22.0086 39.8246 21.4729C38.886 20.9374 38.135 20.1606 37.6254 19.1965C37.1158 18.2325 36.8477 17.0807 36.8477 15.7954C36.8477 14.5099 37.0891 13.3581 37.5987 12.3941C38.1083 11.4031 38.8323 10.6532 39.7442 10.1175ZM45.5909 11.9924C44.8936 11.4031 43.9817 11.1085 42.909 11.1085C41.9434 11.1085 41.1121 11.43 40.3611 12.0458C39.6369 12.6886 39.2079 13.4921 39.1273 14.5099H46.7978C46.6905 13.4385 46.2882 12.5815 45.5909 11.9924Z" fill="white"/>
  <path d="M70.2386 14.8314V22.1426H68.2003V14.9652C68.2003 13.7333 67.932 12.796 67.4226 12.1532C66.8861 11.5104 66.1621 11.1891 65.1965 11.1891C64.1236 11.1891 63.2923 11.5641 62.7023 12.3139C62.1123 13.0638 61.7904 14.0815 61.7904 15.3671V22.1696H59.7521V14.9921C59.7521 13.76 59.4838 12.8227 58.9475 12.1799C58.411 11.5371 57.66 11.2159 56.6677 11.2159C55.6487 11.2159 54.8171 11.6175 54.2271 12.3943C53.6102 13.1709 53.3152 14.2153 53.3152 15.5009V22.1963H51.277V9.50194H53.047L53.3152 11.2426C54.2271 9.98397 55.4608 9.34119 57.0164 9.34119C57.9283 9.34119 58.7329 9.55537 59.4571 9.95703C60.1544 10.3589 60.6908 10.9747 61.0394 11.7515C61.9513 10.1447 63.4263 9.34119 65.4378 9.34119C66.8594 9.34119 68.0126 9.7965 68.9245 10.6802C69.7828 11.5371 70.2386 12.9298 70.2386 14.8314Z" fill="white"/>
  <path d="M73.1889 19.1698C72.6523 18.179 72.3843 17.054 72.3843 15.7954C72.3843 14.5098 72.6523 13.385 73.1889 12.421C73.7252 11.43 74.4762 10.6801 75.4148 10.1444C76.3804 9.60873 77.4531 9.31417 78.6869 9.31417C79.9206 9.31417 81.0202 9.58202 81.959 10.1444C82.8977 10.7068 83.6486 11.4567 84.185 12.421C84.7213 13.4117 84.9896 14.5365 84.9896 15.7954C84.9896 17.0809 84.7213 18.2057 84.185 19.1698C83.6486 20.1608 82.8977 20.9107 81.959 21.4463C80.9934 21.9818 79.9206 22.2766 78.6869 22.2766C77.4531 22.2766 76.3535 22.0087 75.4148 21.4463C74.4762 20.9107 73.7252 20.1608 73.1889 19.1698ZM82.388 18.2057C82.7367 17.4826 82.9244 16.6791 82.9244 15.7954C82.9244 14.9115 82.7367 14.1082 82.388 13.385C82.0394 12.6619 81.5567 12.1262 80.9129 11.7245C80.2692 11.3229 79.5452 11.1354 78.7136 11.1354C77.8823 11.1354 77.1581 11.3229 76.5144 11.7245C75.8708 12.1262 75.3881 12.6888 75.0395 13.385C74.6908 14.1082 74.5029 14.9115 74.5029 15.7954C74.5029 16.6791 74.6908 17.4826 75.0395 18.2057C75.3881 18.9289 75.8708 19.4643 76.5144 19.8662C77.1581 20.2679 77.8823 20.4553 78.7136 20.4553C79.5452 20.4553 80.2692 20.2679 80.9129 19.8662C81.5298 19.4913 82.0394 18.9289 82.388 18.2057ZM76.5414 7.97518H74.6102L77.7483 4.60077H79.6792L82.8171 7.97518H80.8592L78.7136 5.93976L76.5414 7.97518Z" fill="white"/>
  <path d="M85.7405 11.3227V9.44799H88.0203V5.88611H90.0586V9.44799H93.277V11.3227H90.0586V18.8216C90.0586 19.357 90.1659 19.732 90.3805 19.9464C90.5949 20.1606 90.9436 20.2944 91.4532 20.2944H93.6793V22.1693H91.3459C90.139 22.1693 89.3076 21.9014 88.798 21.3658C88.2884 20.8301 88.0471 19.9998 88.0471 18.8483V11.3494H85.7405V11.3227Z" fill="white"/>
  <path d="M97.1658 4.73448V16.2773L103.629 9.47482H106.07L101.189 14.6438L106.419 22.1424H103.951L99.7136 16.1166L97.1658 18.768V22.1157H95.1275V4.70776H97.1658V4.73448Z" fill="white"/>
  <path d="M109.717 10.1175C110.629 9.58205 111.675 9.31421 112.855 9.31421C114.009 9.31421 115.055 9.55511 115.94 10.0374C116.825 10.5194 117.549 11.2156 118.058 12.1262C118.568 13.0368 118.836 14.108 118.89 15.3401C118.89 15.5276 118.863 15.8221 118.836 16.2238H108.967V16.3845C108.993 17.6164 109.369 18.6341 110.12 19.3573C110.844 20.1072 111.809 20.4821 112.989 20.4821C113.901 20.4821 114.679 20.241 115.323 19.7857C115.966 19.3304 116.395 18.6878 116.61 17.8843H118.675C118.434 19.1698 117.817 20.241 116.798 21.0445C115.805 21.8747 114.572 22.2764 113.124 22.2764C111.863 22.2764 110.763 22.0086 109.798 21.4729C108.859 20.9374 108.108 20.1606 107.599 19.1965C107.089 18.2325 106.821 17.0807 106.821 15.7954C106.821 14.5099 107.062 13.3581 107.572 12.3941C108.108 11.4031 108.806 10.6532 109.717 10.1175ZM115.564 11.9924C114.867 11.4031 113.955 11.1085 112.882 11.1085C111.917 11.1085 111.085 11.43 110.334 12.0458C109.61 12.6886 109.181 13.4921 109.101 14.5099H116.771C116.691 13.4385 116.288 12.5815 115.564 11.9924Z" fill="white"/>
  <path d="M125.541 19.8125L129.323 9.4749H131.495L125.649 24.285C125.354 25.0351 125.085 25.6242 124.844 25.9992C124.603 26.3741 124.308 26.6687 123.959 26.8561C123.61 27.0436 123.155 27.124 122.564 27.124H120.124V25.2493H121.948C122.35 25.2493 122.645 25.1957 122.833 25.1153C123.02 25.0351 123.181 24.9011 123.315 24.7136C123.45 24.5262 123.584 24.2049 123.771 23.7496L124.415 22.2229L119.426 9.44818H121.599L125.541 19.8125Z" fill="white"/>
</svg>