<svg xmlns="http://www.w3.org/2000/svg" width="24" height="25" viewBox="0 0 24 25" fill="none">
  <path d="M4 20.431C3.45 20.431 2.979 20.235 2.587 19.843C2.195 19.451 1.99934 18.9804 2 18.431V6.43103C2 5.88103 2.196 5.41003 2.588 5.01803C2.98 4.62603 3.45067 4.43037 4 4.43103H20C20.55 4.43103 21.021 4.62703 21.413 5.01903C21.805 5.41103 22.0007 5.8817 22 6.43103V18.431C22 18.981 21.804 19.452 21.412 19.844C21.02 20.236 20.5493 20.4317 20 20.431H4ZM20 8.43103L12.525 13.106C12.4417 13.156 12.354 13.1937 12.262 13.219C12.17 13.2444 12.0827 13.2567 12 13.256C11.9167 13.256 11.829 13.2437 11.737 13.219C11.645 13.1944 11.5577 13.1567 11.475 13.106L4 8.43103V18.431H20V8.43103ZM12 11.431L20 6.43103H4L12 11.431ZM4 8.68103V7.20603V7.23103V7.21903V8.68103Z" fill="#5EBE76"/>
</svg>