<svg xmlns="http://www.w3.org/2000/svg" width="17" height="16" viewBox="0 0 17 16" fill="none">
  <path fill-rule="evenodd" clip-rule="evenodd" d="M11.4874 1.41184C11.9649 0.934446 12.6125 0.666297 13.2877 0.666382C13.9629 0.666467 14.6104 0.934778 15.0878 1.41229C15.5652 1.8898 15.8334 2.5374 15.8333 3.21262C15.8332 3.88784 15.5649 4.53537 15.0874 5.01277L6.18948 13.912L6.18869 13.9128C5.95687 14.1439 5.67186 14.3145 5.35869 14.4098L2.45462 15.2904C2.28173 15.3424 2.098 15.3466 1.92293 15.3026C1.74786 15.2586 1.58796 15.168 1.46021 15.0404C1.33246 14.9129 1.24161 14.7531 1.19732 14.5781C1.15302 14.4031 1.15693 14.2194 1.20862 14.0464L1.20944 14.0437L2.09011 11.1423L2.09066 11.1405C2.1867 10.8273 2.35821 10.5425 2.59011 10.3111C2.59029 10.3109 2.59048 10.3107 2.59066 10.3105L11.4874 1.41184ZM12.43 2.35477C12.43 2.3548 12.4301 2.35473 12.43 2.35477L3.53283 11.254L3.53208 11.2547C3.45488 11.3317 3.39773 11.4264 3.36565 11.5306C3.36557 11.5309 3.36549 11.5311 3.36542 11.5314L2.66686 13.8328L4.97072 13.1342C5.07489 13.1025 5.16972 13.0457 5.24691 12.969C5.24676 12.9691 5.24707 12.9688 5.24691 12.969L14.1446 4.06993C14.372 3.84256 14.4999 3.53405 14.5 3.21245C14.5 2.89086 14.3723 2.58241 14.1449 2.35498C13.9175 2.12755 13.6091 1.99976 13.2875 1.99972C12.966 1.99967 12.6575 2.12746 12.43 2.35477Z" fill="white"/>
  <path fill-rule="evenodd" clip-rule="evenodd" d="M10.0285 2.86189C10.2889 2.60154 10.711 2.60154 10.9713 2.86189L13.638 5.52855C13.8983 5.7889 13.8983 6.21101 13.638 6.47136C13.3776 6.73171 12.9555 6.73171 12.6952 6.47136L10.0285 3.8047C9.76816 3.54435 9.76816 3.12224 10.0285 2.86189Z" fill="white"/>
</svg>