<svg width="18" height="18" viewBox="0 0 18 18" fill="none" xmlns="http://www.w3.org/2000/svg">
<path d="M14.9625 15.75C13.35 15.75 11.7782 15.3905 10.2473 14.6715C8.71625 13.9525 7.36 13.0025 6.1785 11.8215C4.997 10.6405 4.047 9.28425 3.3285 7.75275C2.61 6.22125 2.2505 4.6495 2.25 3.0375C2.25 2.8125 2.325 2.625 2.475 2.475C2.625 2.325 2.8125 2.25 3.0375 2.25H6.075C6.25 2.25 6.40625 2.30625 6.54375 2.41875C6.68125 2.53125 6.7625 2.675 6.7875 2.85L7.275 5.475C7.3 5.65 7.29675 5.8095 7.26525 5.9535C7.23375 6.0975 7.162 6.2255 7.05 6.3375L5.23125 8.175C5.75625 9.075 6.41575 9.91875 7.20975 10.7062C8.00375 11.4937 8.8755 12.175 9.825 12.75L11.5875 10.9875C11.7 10.875 11.847 10.7905 12.0285 10.734C12.21 10.6775 12.388 10.662 12.5625 10.6875L15.15 11.2125C15.325 11.25 15.4688 11.3345 15.5812 11.466C15.6937 11.5975 15.75 11.7505 15.75 11.925V14.9625C15.75 15.1875 15.675 15.375 15.525 15.525C15.375 15.675 15.1875 15.75 14.9625 15.75ZM4.51875 6.75L5.75625 5.5125L5.4375 3.75H3.76875C3.83125 4.2625 3.91875 4.76875 4.03125 5.26875C4.14375 5.76875 4.30625 6.2625 4.51875 6.75ZM14.25 14.2125V12.5625L12.4875 12.2062L11.2313 13.4625C11.7188 13.675 12.2155 13.8438 12.7215 13.9688C13.2275 14.0938 13.737 14.175 14.25 14.2125Z" fill="#309B5F"/>
</svg>