<svg width="24" height="24" viewBox="0 0 24 24" fill="none" xmlns="http://www.w3.org/2000/svg">
<g id="Icons">
<path id="Vector (Stroke)" fill-rule="evenodd" clip-rule="evenodd" d="M12 3.00476C11.4964 3.00476 11.0009 3.13153 10.5592 3.37339C10.1175 3.61524 9.74379 3.9644 9.47251 4.38867C9.2459 4.74308 8.82172 4.91778 8.41124 4.82575C7.91837 4.71525 7.40557 4.73099 6.9204 4.8715C6.43523 5.01201 5.99338 5.27275 5.63584 5.62954C5.2783 5.98634 5.01664 6.42763 4.87511 6.91251C4.73358 7.39738 4.71677 7.91015 4.82624 8.40325C4.91761 8.81484 4.74103 9.23952 4.38478 9.46498C3.95724 9.73554 3.60509 10.1098 3.36106 10.5531C3.11704 10.9963 2.98907 11.494 2.98907 12C2.98907 12.5059 3.11704 13.0037 3.36106 13.4469C3.60509 13.8901 3.95724 14.2644 4.38478 14.535C4.74103 14.7604 4.91761 15.1851 4.82624 15.5967C4.71677 16.0898 4.73358 16.6026 4.87511 17.0874C5.01664 17.5723 5.2783 18.0136 5.63584 18.3704C5.99338 18.7272 6.43523 18.9879 6.9204 19.1285C7.40557 19.269 7.91837 19.2847 8.41124 19.1742C8.82255 19.082 9.24752 19.2576 9.47376 19.6132C9.74469 20.0391 10.1187 20.3898 10.5612 20.6327C11.0036 20.8757 11.5002 21.003 12.005 21.003C12.5098 21.003 13.0064 20.8757 13.4489 20.6327C13.8913 20.3898 14.2653 20.0391 14.5363 19.6132C14.7621 19.2582 15.186 19.0826 15.5967 19.1737C16.0898 19.2832 16.6026 19.2664 17.0875 19.1249C17.5724 18.9833 18.0137 18.7217 18.3704 18.3641C18.7272 18.0066 18.988 17.5648 19.1285 17.0796C19.269 16.5944 19.2847 16.0816 19.1742 15.5887C19.0822 15.1783 19.2569 14.7541 19.6113 14.5275C20.0356 14.2562 20.3847 13.8825 20.6266 13.4408C20.8685 12.9991 20.9952 12.5036 20.9952 12C20.9952 11.4964 20.8685 11.0009 20.6266 10.5592C20.3847 10.1175 20.0356 9.74376 19.6113 9.47248C19.2567 9.24574 19.082 8.82126 19.1744 8.41062C19.2853 7.91699 19.2697 7.40332 19.1288 6.91737C18.988 6.43143 18.7265 5.989 18.3687 5.63124C18.011 5.27348 17.5686 5.01201 17.0826 4.87116C16.5967 4.7303 16.083 4.71464 15.5894 4.82562C15.1787 4.91794 14.7542 4.74327 14.5275 4.38867C14.2562 3.9644 13.8825 3.61524 13.4408 3.37339C12.9991 3.13153 12.5036 3.00476 12 3.00476ZM9.5987 1.61914C10.3349 1.21604 11.1607 1.00476 12 1.00476C12.8393 1.00476 13.6651 1.21604 14.4013 1.61914C14.9405 1.91433 15.4188 2.30544 15.8138 2.77139C16.4263 2.71808 17.0453 2.77801 17.6394 2.95022C18.4493 3.18498 19.1867 3.62076 19.783 4.21702C20.3792 4.81329 20.815 5.55067 21.0498 6.36058C21.222 6.95471 21.2819 7.57371 21.2286 8.18615C21.6945 8.58118 22.0857 9.05953 22.3808 9.59866C22.7839 10.3348 22.9952 11.1607 22.9952 12C22.9952 12.8393 22.7839 13.6651 22.3808 14.4013C22.0856 14.9405 21.6944 15.419 21.2283 15.8141C21.2812 16.4253 21.2213 17.043 21.0495 17.636C20.8154 18.4446 20.3808 19.181 19.7861 19.7769C19.1915 20.3728 18.456 20.8089 17.6479 21.0448C17.0553 21.2177 16.4378 21.2789 15.8265 21.2273C15.4313 21.6958 14.952 22.0891 14.4114 22.3859C13.674 22.7908 12.8463 23.003 12.005 23.003C11.1637 23.003 10.336 22.7908 9.5986 22.3859C9.05842 22.0893 8.57947 21.6964 8.1844 21.2284C7.57368 21.281 6.9565 21.2211 6.36404 21.0495C5.55541 20.8153 4.81901 20.3808 4.22311 19.7861C3.62721 19.1914 3.1911 18.456 2.95522 17.6478C2.78241 17.0558 2.72117 16.4388 2.77252 15.828C2.30219 15.4328 1.9072 14.953 1.60905 14.4115C1.20235 13.6728 0.989075 12.8432 0.989075 12C0.989075 11.1567 1.20235 10.3272 1.60905 9.58846C1.9072 9.04694 2.30219 8.56716 2.77252 8.17195C2.72117 7.56117 2.78241 6.94417 2.95522 6.35212C3.1911 5.54399 3.62721 4.8085 4.22311 4.21385C4.81901 3.6192 5.55541 3.18463 6.36404 2.95044C6.95699 2.77871 7.5747 2.71881 8.18592 2.77169C8.581 2.30561 9.05945 1.9144 9.5987 1.61914Z" fill="#309B5F"/>
<path id="Vector (Stroke)_2" fill-rule="evenodd" clip-rule="evenodd" d="M15.7071 9.29289C16.0976 9.68342 16.0976 10.3166 15.7071 10.7071L11.7071 14.7071C11.3166 15.0976 10.6834 15.0976 10.2929 14.7071L8.29289 12.7071C7.90237 12.3166 7.90237 11.6834 8.29289 11.2929C8.68342 10.9024 9.31658 10.9024 9.70711 11.2929L11 12.5858L14.2929 9.29289C14.6834 8.90237 15.3166 8.90237 15.7071 9.29289Z" fill="#309B5F"/>
</g>
</svg>
