<svg xmlns="http://www.w3.org/2000/svg" width="30" height="30" viewBox="0 0 30 30" fill="none">
  <path d="M19.9048 8.86658C19.3555 5.26855 16.25 2.5 12.5 2.5C8.36426 2.5 5 5.86426 5 10V26.25C5 26.9403 5.55908 27.5 6.25 27.5C6.94092 27.5 7.5 26.9403 7.5 26.25V10C7.5 7.24304 9.74243 5 12.5 5C14.884 5 16.875 6.67908 17.373 8.91419C14.5898 9.54468 12.5 12.0282 12.5 15C12.5 15.6903 13.0591 16.25 13.75 16.25H23.75C24.4409 16.25 25 15.6903 25 15C25 11.9495 22.8003 9.41162 19.9048 8.86658ZM15.2136 13.75C15.73 12.2949 17.1204 11.25 18.75 11.25C20.3796 11.25 21.77 12.2949 22.2864 13.75H15.2136ZM20 18.75V20C20 20.6903 19.4409 21.25 18.75 21.25C18.0591 21.25 17.5 20.6903 17.5 20V18.75C17.5 18.0597 18.0591 17.5 18.75 17.5C19.4409 17.5 20 18.0597 20 18.75ZM16.25 18.75V20C16.25 20.6903 15.6909 21.25 15 21.25C14.3091 21.25 13.75 20.6903 13.75 20V18.75C13.75 18.0597 14.3091 17.5 15 17.5C15.6909 17.5 16.25 18.0597 16.25 18.75ZM23.75 18.75V20C23.75 20.6903 23.1909 21.25 22.5 21.25C21.8091 21.25 21.25 20.6903 21.25 20V18.75C21.25 18.0597 21.8091 17.5 22.5 17.5C23.1909 17.5 23.75 18.0597 23.75 18.75ZM20 23.75V25C20 25.6903 19.4409 26.25 18.75 26.25C18.0591 26.25 17.5 25.6903 17.5 25V23.75C17.5 23.0597 18.0591 22.5 18.75 22.5C19.4409 22.5 20 23.0597 20 23.75ZM16.25 23.75V25C16.25 25.6903 15.6909 26.25 15 26.25C14.3091 26.25 13.75 25.6903 13.75 25V23.75C13.75 23.0597 14.3091 22.5 15 22.5C15.6909 22.5 16.25 23.0597 16.25 23.75ZM23.75 23.75V25C23.75 25.6903 23.1909 26.25 22.5 26.25C21.8091 26.25 21.25 25.6903 21.25 25V23.75C21.25 23.0597 21.8091 22.5 22.5 22.5C23.1909 22.5 23.75 23.0597 23.75 23.75Z" fill="#309B5F"/>
</svg>