<svg xmlns="http://www.w3.org/2000/svg" width="40" height="41" viewBox="0 0 40 41" fill="none">
  <path d="M6.41674 14.8667C6.17348 13.7709 6.21083 12.6314 6.52534 11.5539C6.83985 10.4764 7.42132 9.49574 8.21586 8.70287C9.01039 7.91 9.99226 7.33057 11.0704 7.01832C12.1486 6.70607 13.2881 6.67111 14.3834 6.91667C14.9863 5.97384 15.8167 5.19793 16.7983 4.66048C17.7799 4.12302 18.881 3.84131 20.0001 3.84131C21.1192 3.84131 22.2202 4.12302 23.2018 4.66048C24.1834 5.19793 25.0139 5.97384 25.6167 6.91667C26.7137 6.67004 27.8552 6.70485 28.9351 7.01786C30.015 7.33086 30.9981 7.9119 31.7932 8.70692C32.5882 9.50194 33.1692 10.4851 33.4822 11.565C33.7952 12.6449 33.83 13.7864 33.5834 14.8833C34.5262 15.4862 35.3021 16.3167 35.8396 17.2983C36.3771 18.2798 36.6588 19.3809 36.6588 20.5C36.6588 21.6191 36.3771 22.7202 35.8396 23.7017C35.3021 24.6833 34.5262 25.5138 33.5834 26.1167C33.829 27.2119 33.794 28.3515 33.4818 29.4297C33.1695 30.5078 32.5901 31.4897 31.7972 32.2842C31.0043 33.0788 30.0237 33.6602 28.9462 33.9747C27.8687 34.2892 26.7292 34.3266 25.6334 34.0833C25.0313 35.0298 24.2002 35.809 23.217 36.3489C22.2337 36.8887 21.1301 37.1718 20.0084 37.1718C18.8867 37.1718 17.7831 36.8887 16.7999 36.3489C15.8166 35.809 14.9855 35.0298 14.3834 34.0833C13.2881 34.3289 12.1486 34.2939 11.0704 33.9817C9.99226 33.6694 9.01039 33.09 8.21586 32.2971C7.42132 31.5043 6.83985 30.5236 6.52534 29.4461C6.21083 28.3686 6.17348 27.2291 6.41674 26.1333C5.46667 25.5321 4.6841 24.7003 4.14182 23.7154C3.59955 22.7304 3.31519 21.6243 3.31519 20.5C3.31519 19.3757 3.59955 18.2696 4.14182 17.2846C4.6841 16.2997 5.46667 15.4679 6.41674 14.8667Z" stroke="#309B5F" stroke-width="2" stroke-linecap="round" stroke-linejoin="round"/>
  <path d="M15 20.5L18.3333 23.8333L25 17.1666" stroke="#309B5F" stroke-width="2" stroke-linecap="round" stroke-linejoin="round"/>
</svg>