<svg width="24" height="24" viewBox="0 0 24 24" fill="none" xmlns="http://www.w3.org/2000/svg">
<path d="M10 10H14" stroke="#309B5F" stroke-width="2" stroke-linecap="round" stroke-linejoin="round"/>
<path d="M19 7V4C19 3.73478 18.8946 3.48043 18.7071 3.29289C18.5196 3.10536 18.2652 3 18 3H16C15.7348 3 15.4804 3.10536 15.2929 3.29289C15.1054 3.48043 15 3.73478 15 4V7" stroke="#309B5F" stroke-width="2" stroke-linecap="round" stroke-linejoin="round"/>
<path d="M20 21C20.5304 21 21.0391 20.7893 21.4142 20.4142C21.7893 20.0391 22 19.5304 22 19V15.149C22 13.759 20 12.187 20 10.32V8C20 7.73478 19.8946 7.48043 19.7071 7.29289C19.5196 7.10536 19.2652 7 19 7H15C14.7348 7 14.4804 7.10536 14.2929 7.29289C14.1054 7.48043 14 7.73478 14 8V19C14 19.5304 14.2107 20.0391 14.5858 20.4142C14.9609 20.7893 15.4696 21 16 21H20Z" stroke="#309B5F" stroke-width="2" stroke-linecap="round" stroke-linejoin="round"/>
<path d="M22 16H2" stroke="#309B5F" stroke-width="2" stroke-linecap="round" stroke-linejoin="round"/>
<path d="M4 21C3.46957 21 2.96086 20.7893 2.58579 20.4142C2.21071 20.0391 2 19.5304 2 19V15.149C2 13.759 4 12.187 4 10.32V8C4 7.73478 4.10536 7.48043 4.29289 7.29289C4.48043 7.10536 4.73478 7 5 7H9C9.26522 7 9.51957 7.10536 9.70711 7.29289C9.89464 7.48043 10 7.73478 10 8V19C10 19.5304 9.78929 20.0391 9.41421 20.4142C9.03914 20.7893 8.53043 21 8 21H4Z" stroke="#309B5F" stroke-width="2" stroke-linecap="round" stroke-linejoin="round"/>
<path d="M9 7V4C9 3.73478 8.89464 3.48043 8.70711 3.29289C8.51957 3.10536 8.26522 3 8 3H6C5.73478 3 5.48043 3.10536 5.29289 3.29289C5.10536 3.48043 5 3.73478 5 4V7" stroke="#309B5F" stroke-width="2" stroke-linecap="round" stroke-linejoin="round"/>
</svg>
